# xmcd
#
# Track frame offsets:
#	150
#	2811
#	20865
#	37345
#	51609
#	57576
#	72286
#	91729
#	109293
#	131809
#	134915
#	152287
#	174867
#
# Disc length: 2586 seconds
#
# Revision: 0
# Processed by: cddbd v1.5.2PL0 Copyright (c) Steve Scherf et al.
# Submitted via: FairStars CD Ripper 1.90
#
DISCID=c10a180d
DTITLE=Fantastic Negrito - The Last Days of Oakland
DYEAR=2016
DGENRE=Blues
TTITLE0=intro - the last days of oakland
TTITLE1=working poor
TTITLE2=about a bird
TTITLE3=scary woman
TTITLE4=what would you do
TTITLE5=in the pines
TTITLE6=the nigga song
TTITLE7=hump throught the winter
TTITLE8=lost in the crowd
TTITLE9=interlude 2 - el chileno
TTITLE10=the worst
TTITLE11=rant rushmore
TTITLE12=nothing without you
EXTD=
EXTT0=
EXTT1=
EXTT2=
EXTT3=
EXTT4=
EXTT5=
EXTT6=
EXTT7=
EXTT8=
EXTT9=
EXTT10=
EXTT11=
EXTT12=
PLAYORDER=
